<svg xmlns="http://www.w3.org/2000/svg" xmlns:xlink="http://www.w3.org/1999/xlink" width="1366" zoomAndPan="magnify" viewBox="0 0 1024.5 312.749988" height="417" preserveAspectRatio="xMidYMid meet" version="1.0"><defs><g/></defs><g fill="#000000" fill-opacity="1"><g transform="translate(117.548741, 206.428206)"><g><path d="M 306.53125 -168.515625 C 306.195312 -167.679688 305.867188 -166.847656 305.546875 -166.015625 C 302.285156 -157.535156 298.769531 -149.195312 295 -141 C 275.539062 -100.539062 254.632812 -61.410156 232.28125 -23.609375 C 225.019531 -11.410156 217.59375 0.578125 210 12.359375 C 202.414062 24.140625 194.78125 35.875 187.09375 47.5625 C 185.28125 50.3125 183.441406 53.054688 181.578125 55.796875 C 181.484375 56.035156 181.390625 56.203125 181.296875 56.296875 C 180.878906 57.128906 180.390625 57.820312 179.828125 58.375 C 179.273438 58.9375 178.535156 59.21875 177.609375 59.21875 C 177.179688 59.21875 176.734375 59.113281 176.265625 58.90625 C 175.804688 58.695312 175.4375 58.429688 175.15625 58.109375 C 174.925781 57.828125 174.765625 57.367188 174.671875 56.734375 C 174.578125 56.109375 174.625 55.613281 174.8125 55.25 C 176.0625 52.539062 177.457031 49.976562 179 47.5625 C 182.445312 41.925781 185.914062 36.289062 189.40625 30.65625 C 195.96875 20.1875 202.414062 9.6875 208.75 -0.84375 C 222.8125 -24.300781 236.242188 -48.253906 249.046875 -72.703125 C 261.847656 -97.148438 274.347656 -121.847656 286.546875 -146.796875 C 291.441406 -156.441406 295.472656 -166.753906 298.640625 -177.734375 C 299.285156 -179.648438 299.78125 -181.628906 300.125 -183.671875 C 300.476562 -185.722656 300.65625 -187.84375 300.65625 -190.03125 C 300.332031 -194.738281 298.332031 -196.785156 294.65625 -196.171875 C 291.394531 -195.523438 288.320312 -194.503906 285.4375 -193.109375 C 278.59375 -189.796875 271.84375 -186.140625 265.1875 -182.140625 C 229.425781 -160.441406 196.851562 -133.507812 167.46875 -101.34375 C 167.050781 -100.820312 166.585938 -100.304688 166.078125 -99.796875 C 155.929688 -88.765625 145.863281 -77.640625 135.875 -66.421875 C 125.882812 -55.203125 116.1875 -43.65625 106.78125 -31.78125 C 104.820312 -29.3125 102.773438 -27.003906 100.640625 -24.859375 C 98.359375 -22.484375 95.632812 -21.550781 92.46875 -22.0625 C 91.113281 -22.25 90.003906 -22.910156 89.140625 -24.046875 C 88.285156 -25.191406 87.953125 -26.535156 88.140625 -28.078125 C 88.785156 -32.265625 89.71875 -36.316406 90.9375 -40.234375 C 94.707031 -52.617188 98.707031 -64.835938 102.9375 -76.890625 C 103.539062 -78.753906 104.101562 -80.546875 104.625 -82.265625 C 105.738281 -86.785156 107.320312 -90.953125 109.375 -94.765625 C 109.375 -94.859375 109.328125 -94.90625 109.234375 -94.90625 C 108.710938 -95.1875 108.195312 -95.40625 107.6875 -95.5625 C 107.175781 -95.726562 106.664062 -95.554688 106.15625 -95.046875 C 104.289062 -93.003906 102.5 -90.863281 100.78125 -88.625 C 86.625 -69.445312 72.609375 -50.101562 58.734375 -30.59375 C 44.859375 -11.082031 31.3125 8.75 18.09375 28.90625 C 16.96875 30.863281 15.71875 32.457031 14.34375 33.6875 C 12.976562 34.925781 11.15625 35.335938 8.875 34.921875 C 7.84375 34.640625 7.046875 34.007812 6.484375 33.03125 C 5.929688 32.050781 5.816406 31.097656 6.140625 30.171875 C 7.359375 27.421875 8.6875 24.8125 10.125 22.34375 C 14.21875 15.269531 18.269531 8.195312 22.28125 1.125 C 30.332031 -12.894531 38.316406 -26.984375 46.234375 -41.140625 C 58.523438 -62.835938 69.488281 -85.671875 79.125 -109.640625 C 82.894531 -118.859375 85.96875 -128.546875 88.34375 -138.703125 C 89.644531 -144.097656 90.203125 -149.734375 90.015625 -155.609375 C 89.410156 -165.003906 86.289062 -171.726562 80.65625 -175.78125 C 75.03125 -179.832031 67.628906 -181.753906 58.453125 -181.546875 C 49.285156 -181.335938 39.113281 -179.460938 27.9375 -175.921875 C 16.757812 -172.390625 5.304688 -167.710938 -6.421875 -161.890625 C -18.160156 -156.066406 -29.472656 -149.640625 -40.359375 -142.609375 C -51.253906 -135.578125 -60.953125 -128.453125 -69.453125 -121.234375 C -77.953125 -114.023438 -84.578125 -107.253906 -89.328125 -100.921875 C -94.304688 -93.929688 -98.539062 -86.25 -102.03125 -77.875 C -103.800781 -73.863281 -104.828125 -69.507812 -105.109375 -64.8125 C -105.203125 -63.882812 -105.664062 -63.1875 -106.5 -62.71875 C -107.34375 -62.25 -108.273438 -62.109375 -109.296875 -62.296875 C -110.929688 -62.804688 -111.957031 -64.085938 -112.375 -66.140625 C -112.65625 -68.835938 -112.445312 -71.304688 -111.75 -73.546875 C -110.207031 -79.171875 -108.15625 -84.5 -105.59375 -89.53125 C -100.894531 -98.332031 -93.75 -107.316406 -84.15625 -116.484375 C -74.5625 -125.660156 -63.382812 -134.453125 -50.625 -142.859375 C -37.875 -151.265625 -24.5625 -158.757812 -10.6875 -165.34375 C 3.1875 -171.9375 16.757812 -177.054688 30.03125 -180.703125 C 43.300781 -184.359375 55.253906 -186 65.890625 -185.625 C 76.535156 -185.257812 84.929688 -182.335938 91.078125 -176.859375 C 97.222656 -171.390625 100.203125 -162.769531 100.015625 -151 C 99.679688 -143.40625 98.492188 -136.1875 96.453125 -129.34375 C 93.472656 -119.28125 90.035156 -109.554688 86.140625 -100.171875 C 82.253906 -90.796875 78.125 -81.617188 73.75 -72.640625 C 72.394531 -69.835938 72.101562 -68.472656 72.875 -68.546875 C 73.644531 -68.617188 74.796875 -69.675781 76.328125 -71.71875 C 81.867188 -79.082031 87.410156 -86.347656 92.953125 -93.515625 C 96.722656 -98.304688 100.566406 -103.007812 104.484375 -107.625 C 104.992188 -108.269531 105.503906 -108.898438 106.015625 -109.515625 C 108.253906 -112.253906 110.957031 -114.09375 114.125 -115.03125 C 116.488281 -115.539062 118.484375 -115.003906 120.109375 -113.421875 C 121.742188 -111.835938 122.304688 -109.460938 121.796875 -106.296875 C 121.703125 -105.972656 121.609375 -105.644531 121.515625 -105.3125 C 120.679688 -101.21875 119.707031 -97.238281 118.59375 -93.375 C 115.613281 -83.925781 112.539062 -74.546875 109.375 -65.234375 C 107.832031 -60.429688 106.296875 -55.566406 104.765625 -50.640625 C 104.429688 -49.941406 103.960938 -48.660156 103.359375 -46.796875 C 102.753906 -45.160156 102.171875 -43.550781 101.609375 -41.96875 C 101.054688 -40.382812 100.617188 -39.175781 100.296875 -38.34375 C 100.710938 -38.664062 104.503906 -42.925781 111.671875 -51.125 C 121.398438 -62.300781 132.921875 -75.382812 146.234375 -90.375 C 159.554688 -105.363281 170.015625 -116.816406 177.609375 -124.734375 C 191.617188 -138.835938 206.382812 -151.675781 221.90625 -163.25 C 237.4375 -174.820312 253.535156 -185.285156 270.203125 -194.640625 C 274.304688 -196.785156 278.519531 -198.71875 282.84375 -200.4375 C 283.78125 -200.757812 284.691406 -201.132812 285.578125 -201.5625 C 289.671875 -203.1875 294.023438 -203.789062 298.640625 -203.375 C 307.484375 -202.53125 311.53125 -196.941406 310.78125 -186.609375 C 310.269531 -180.179688 308.851562 -174.148438 306.53125 -168.515625 Z M 108.875 -95.328125 C 109.113281 -95.140625 109.28125 -95 109.375 -94.90625 C 109.375 -94.90625 109.375 -94.859375 109.375 -94.765625 C 109.46875 -94.765625 109.515625 -94.8125 109.515625 -94.90625 C 109.328125 -95 109.113281 -95.140625 108.875 -95.328125 Z M 108.875 -95.328125 "/></g></g></g><g fill="#000000" fill-opacity="1"><g transform="translate(380.765117, 206.428206)"><g><path d="M 50.671875 -35.578125 C 51.765625 -34.953125 51.84375 -33.429688 50.90625 -31.015625 C 49.5625 -29.242188 48.117188 -27.585938 46.578125 -26.046875 C 45.046875 -24.515625 43.367188 -23.140625 41.546875 -21.921875 C 41.410156 -21.921875 41.34375 -21.878906 41.34375 -21.796875 C 40.132812 -20.953125 38.851562 -20.226562 37.5 -19.625 C 26.375 -15.625 20.695312 -17.972656 20.46875 -26.671875 C 15.945312 -22.765625 12.921875 -20.367188 11.390625 -19.484375 C 7.703125 -17.296875 3.71875 -16.316406 -0.5625 -16.546875 C -3.726562 -16.734375 -5.878906 -17.695312 -7.015625 -19.4375 C -8.160156 -21.1875 -8.054688 -23.550781 -6.703125 -26.53125 C -4.648438 -31.238281 -1.738281 -35.429688 2.03125 -39.109375 C 6.445312 -43.203125 11.359375 -46.484375 16.765625 -48.953125 C 19.648438 -50.398438 22.675781 -50.960938 25.84375 -50.640625 C 29.007812 -50.453125 30.914062 -48.65625 31.5625 -45.25 C 31.84375 -44.226562 31.585938 -43.320312 30.796875 -42.53125 C 29.773438 -41.601562 28.585938 -41.394531 27.234375 -41.90625 C 27.140625 -41.90625 27.007812 -41.925781 26.84375 -41.96875 C 26.6875 -42.019531 26.5625 -42.09375 26.46875 -42.1875 C 25.113281 -44.050781 23.75 -44.828125 22.375 -44.515625 C 21.007812 -44.210938 19.554688 -43.597656 18.015625 -42.671875 C 10.847656 -38.484375 5.519531 -32.640625 2.03125 -25.140625 C 1.84375 -24.816406 1.722656 -24.457031 1.671875 -24.0625 C 1.628906 -23.664062 1.75 -23.347656 2.03125 -23.109375 C 2.863281 -22.835938 3.789062 -22.898438 4.8125 -23.296875 C 5.84375 -23.691406 6.867188 -24.269531 7.890625 -25.03125 C 8.910156 -25.800781 9.769531 -26.441406 10.46875 -26.953125 C 10.5625 -27.097656 10.609375 -27.171875 10.609375 -27.171875 C 14.015625 -30.003906 17.347656 -32.910156 20.609375 -35.890625 C 22.046875 -37.429688 23.835938 -38.296875 25.984375 -38.484375 C 29.054688 -38.484375 30.335938 -37.109375 29.828125 -34.359375 C 29.546875 -33.335938 29.238281 -32.3125 28.90625 -31.28125 C 27.695312 -26.863281 27.648438 -24.269531 28.765625 -23.5 C 29.890625 -22.726562 31.601562 -22.726562 33.90625 -23.5 C 36.207031 -24.269531 38.507812 -25.734375 40.8125 -27.890625 C 43.125 -30.054688 45.070312 -32.035156 46.65625 -33.828125 C 48.238281 -35.628906 49.578125 -36.210938 50.671875 -35.578125 Z M 50.671875 -35.578125 "/></g></g></g><g fill="#000000" fill-opacity="1"><g transform="translate(427.067168, 206.428206)"><g><path d="M 33.515625 -42.875 C 33.097656 -39.664062 31.585938 -37.570312 28.984375 -36.59375 C 26.378906 -35.613281 25.53125 -36.894531 26.4375 -40.4375 C 27.34375 -43.976562 25.742188 -44.875 21.640625 -43.125 C 17.546875 -41.375 14.175781 -39.175781 11.53125 -36.53125 C 7.425781 -32.332031 3.789062 -27.816406 0.625 -22.984375 C 0.300781 -22.554688 0.046875 -22.203125 -0.140625 -21.921875 C -1.066406 -20.578125 -2 -19.300781 -2.9375 -18.09375 C -3.539062 -17.25 -4.25 -16.722656 -5.0625 -16.515625 C -5.875 -16.304688 -6.703125 -16.269531 -7.546875 -16.40625 C -8.335938 -16.5 -8.941406 -16.800781 -9.359375 -17.3125 C -9.773438 -17.832031 -9.820312 -18.441406 -9.5 -19.140625 C -8.988281 -20.390625 -8.382812 -21.671875 -7.6875 -22.984375 C -3.488281 -30.753906 0.769531 -38.550781 5.09375 -46.375 C 5.1875 -46.46875 5.234375 -46.5625 5.234375 -46.65625 C 5.835938 -47.863281 6.5625 -48.976562 7.40625 -50 C 8.332031 -51.03125 9.398438 -51.453125 10.609375 -51.265625 C 11.828125 -51.078125 12.644531 -50.351562 13.0625 -49.09375 C 13.570312 -47.46875 14.015625 -46.550781 14.390625 -46.34375 C 14.765625 -46.132812 15.601562 -46.285156 16.90625 -46.796875 C 19.695312 -47.816406 22.414062 -48.535156 25.0625 -48.953125 C 27.71875 -49.378906 29.894531 -49.273438 31.59375 -48.640625 C 33.300781 -48.015625 33.941406 -46.09375 33.515625 -42.875 Z M 33.515625 -42.875 "/></g></g></g><g fill="#000000" fill-opacity="1"><g transform="translate(461.985764, 206.428206)"><g><path d="M 27.765625 -29.4375 C 25.273438 -26.476562 22.328125 -23.765625 18.921875 -21.296875 C 15.523438 -18.828125 11.6875 -17.160156 7.40625 -16.296875 C 3.125 -15.441406 -0.203125 -15.757812 -2.578125 -17.25 C -4.953125 -18.738281 -5.421875 -22.046875 -3.984375 -27.171875 C -2.117188 -32.472656 0.441406 -37.523438 3.703125 -42.328125 C 4.441406 -43.347656 5.515625 -44.066406 6.921875 -44.484375 C 7.941406 -44.722656 8.832031 -44.550781 9.59375 -43.96875 C 10.363281 -43.382812 10.65625 -42.648438 10.46875 -41.765625 C 9.769531 -40.085938 9.003906 -38.410156 8.171875 -36.734375 C 7.335938 -35.054688 6.78125 -33.960938 6.5 -33.453125 C 4.863281 -30.472656 3.722656 -27.351562 3.078125 -24.09375 C 3.078125 -22.226562 5.566406 -22.109375 10.546875 -23.734375 C 15.523438 -25.367188 20.363281 -28.363281 25.0625 -32.71875 C 29.769531 -37.070312 32.019531 -38.351562 31.8125 -36.5625 C 31.601562 -34.769531 30.253906 -32.394531 27.765625 -29.4375 Z M 15.578125 -52.796875 C 15.335938 -52.609375 14.859375 -52.382812 14.140625 -52.125 C 13.421875 -51.875 12.648438 -51.691406 11.828125 -51.578125 C 11.015625 -51.460938 10.375 -51.585938 9.90625 -51.953125 C 9.445312 -52.328125 9.425781 -53.078125 9.84375 -54.203125 C 10.59375 -56.148438 11.375 -57.859375 12.1875 -59.328125 C 13 -60.796875 14.054688 -62.414062 15.359375 -64.1875 C 16.203125 -64.976562 17.113281 -65.40625 18.09375 -65.46875 C 19.070312 -65.539062 19.882812 -65.285156 20.53125 -64.703125 C 21.1875 -64.117188 21.375 -63.316406 21.09375 -62.296875 C 20.070312 -58.617188 18.234375 -55.453125 15.578125 -52.796875 Z M 15.578125 -52.796875 "/></g></g></g><g fill="#000000" fill-opacity="1"><g transform="translate(489.22228, 206.428206)"><g><path d="M 27.765625 -29.4375 C 25.273438 -26.476562 22.328125 -23.765625 18.921875 -21.296875 C 15.523438 -18.828125 11.6875 -17.160156 7.40625 -16.296875 C 3.125 -15.441406 -0.203125 -15.757812 -2.578125 -17.25 C -4.953125 -18.738281 -5.421875 -22.046875 -3.984375 -27.171875 C -2.117188 -32.472656 0.441406 -37.523438 3.703125 -42.328125 C 4.441406 -43.347656 5.515625 -44.066406 6.921875 -44.484375 C 7.941406 -44.722656 8.832031 -44.550781 9.59375 -43.96875 C 10.363281 -43.382812 10.65625 -42.648438 10.46875 -41.765625 C 9.769531 -40.085938 9.003906 -38.410156 8.171875 -36.734375 C 7.335938 -35.054688 6.78125 -33.960938 6.5 -33.453125 C 4.863281 -30.472656 3.722656 -27.351562 3.078125 -24.09375 C 3.078125 -22.226562 5.566406 -22.109375 10.546875 -23.734375 C 15.523438 -25.367188 20.363281 -28.363281 25.0625 -32.71875 C 29.769531 -37.070312 32.019531 -38.351562 31.8125 -36.5625 C 31.601562 -34.769531 30.253906 -32.394531 27.765625 -29.4375 Z M 15.578125 -52.796875 C 15.335938 -52.609375 14.859375 -52.382812 14.140625 -52.125 C 13.421875 -51.875 12.648438 -51.691406 11.828125 -51.578125 C 11.015625 -51.460938 10.375 -51.585938 9.90625 -51.953125 C 9.445312 -52.328125 9.425781 -53.078125 9.84375 -54.203125 C 10.59375 -56.148438 11.375 -57.859375 12.1875 -59.328125 C 13 -60.796875 14.054688 -62.414062 15.359375 -64.1875 C 16.203125 -64.976562 17.113281 -65.40625 18.09375 -65.46875 C 19.070312 -65.539062 19.882812 -65.285156 20.53125 -64.703125 C 21.1875 -64.117188 21.375 -63.316406 21.09375 -62.296875 C 20.070312 -58.617188 18.234375 -55.453125 15.578125 -52.796875 Z M 15.578125 -52.796875 "/></g></g></g><g fill="#000000" fill-opacity="1"><g transform="translate(516.458773, 206.428206)"><g><path d="M 50.671875 -35.578125 C 51.765625 -34.953125 51.84375 -33.429688 50.90625 -31.015625 C 49.5625 -29.242188 48.117188 -27.585938 46.578125 -26.046875 C 45.046875 -24.515625 43.367188 -23.140625 41.546875 -21.921875 C 41.410156 -21.921875 41.34375 -21.878906 41.34375 -21.796875 C 40.132812 -20.953125 38.851562 -20.226562 37.5 -19.625 C 26.375 -15.625 20.695312 -17.972656 20.46875 -26.671875 C 15.945312 -22.765625 12.921875 -20.367188 11.390625 -19.484375 C 7.703125 -17.296875 3.71875 -16.316406 -0.5625 -16.546875 C -3.726562 -16.734375 -5.878906 -17.695312 -7.015625 -19.4375 C -8.160156 -21.1875 -8.054688 -23.550781 -6.703125 -26.53125 C -4.648438 -31.238281 -1.738281 -35.429688 2.03125 -39.109375 C 6.445312 -43.203125 11.359375 -46.484375 16.765625 -48.953125 C 19.648438 -50.398438 22.675781 -50.960938 25.84375 -50.640625 C 29.007812 -50.453125 30.914062 -48.65625 31.5625 -45.25 C 31.84375 -44.226562 31.585938 -43.320312 30.796875 -42.53125 C 29.773438 -41.601562 28.585938 -41.394531 27.234375 -41.90625 C 27.140625 -41.90625 27.007812 -41.925781 26.84375 -41.96875 C 26.6875 -42.019531 26.5625 -42.09375 26.46875 -42.1875 C 25.113281 -44.050781 23.75 -44.828125 22.375 -44.515625 C 21.007812 -44.210938 19.554688 -43.597656 18.015625 -42.671875 C 10.847656 -38.484375 5.519531 -32.640625 2.03125 -25.140625 C 1.84375 -24.816406 1.722656 -24.457031 1.671875 -24.0625 C 1.628906 -23.664062 1.75 -23.347656 2.03125 -23.109375 C 2.863281 -22.835938 3.789062 -22.898438 4.8125 -23.296875 C 5.84375 -23.691406 6.867188 -24.269531 7.890625 -25.03125 C 8.910156 -25.800781 9.769531 -26.441406 10.46875 -26.953125 C 10.5625 -27.097656 10.609375 -27.171875 10.609375 -27.171875 C 14.015625 -30.003906 17.347656 -32.910156 20.609375 -35.890625 C 22.046875 -37.429688 23.835938 -38.296875 25.984375 -38.484375 C 29.054688 -38.484375 30.335938 -37.109375 29.828125 -34.359375 C 29.546875 -33.335938 29.238281 -32.3125 28.90625 -31.28125 C 27.695312 -26.863281 27.648438 -24.269531 28.765625 -23.5 C 29.890625 -22.726562 31.601562 -22.726562 33.90625 -23.5 C 36.207031 -24.269531 38.507812 -25.734375 40.8125 -27.890625 C 43.125 -30.054688 45.070312 -32.035156 46.65625 -33.828125 C 48.238281 -35.628906 49.578125 -36.210938 50.671875 -35.578125 Z M 50.671875 -35.578125 "/></g></g></g><g fill="#000000" fill-opacity="1"><g transform="translate(562.760825, 206.428206)"><g/></g></g><g fill="#000000" fill-opacity="1"><g transform="translate(615.557764, 206.428206)"><g><path d="M 339.5625 -88 C 340.675781 -87.769531 341.554688 -87.300781 342.203125 -86.59375 C 342.859375 -85.894531 343 -85.222656 342.625 -84.578125 C 342.207031 -83.972656 341.742188 -83.597656 341.234375 -83.453125 C 340.722656 -83.316406 340.164062 -83.296875 339.5625 -83.390625 C 338.8125 -83.390625 338.039062 -83.4375 337.25 -83.53125 C 326.175781 -83.851562 311.5 -83.210938 293.21875 -81.609375 C 274.945312 -80.003906 260.222656 -78.429688 249.046875 -76.890625 C 240.429688 -75.773438 231.816406 -74.566406 223.203125 -73.265625 C 223.015625 -73.265625 222.757812 -73.191406 222.4375 -73.046875 C 218.851562 -72.535156 215.570312 -71.210938 212.59375 -69.078125 C 201.644531 -61.617188 190.328125 -54.863281 178.640625 -48.8125 C 166.960938 -42.757812 155.046875 -37.128906 142.890625 -31.921875 C 123.191406 -23.210938 103.054688 -15.625 82.484375 -9.15625 C 78.285156 -8.03125 75.210938 -5.46875 73.265625 -1.46875 C 64.140625 16.738281 54.617188 34.546875 44.703125 51.953125 C 35.898438 67.460938 27.445312 83.15625 19.34375 99.03125 C 19.34375 99.125 19.296875 99.21875 19.203125 99.3125 C 18.878906 100.144531 18.460938 100.820312 17.953125 101.34375 C 17.109375 102.039062 16.128906 102.296875 15.015625 102.109375 C 14.410156 102.296875 13.804688 102.296875 13.203125 102.109375 C 11.941406 101.597656 11.3125 100.664062 11.3125 99.3125 C 11.457031 97.070312 12.179688 94.976562 13.484375 93.03125 C 13.578125 92.9375 13.625 92.816406 13.625 92.671875 C 21.8125 77.960938 29.875 63.25 37.8125 48.53125 C 45.75 33.820312 53.421875 18.898438 60.828125 3.765625 C 61.429688 2.515625 62.035156 1.238281 62.640625 -0.0625 C 62.878906 -0.71875 63.140625 -1.394531 63.421875 -2.09375 C 62.710938 -2.28125 62.054688 -2.441406 61.453125 -2.578125 C 60.296875 -2.347656 59.15625 -2.023438 58.03125 -1.609375 C 57.613281 -1.515625 57.21875 -1.375 56.84375 -1.1875 C 42.507812 2.90625 28.007812 6.394531 13.34375 9.28125 C 3.1875 11.101562 -7.007812 12.382812 -17.25 13.125 C -17.757812 13.21875 -18.222656 13.265625 -18.640625 13.265625 C -19.671875 13.359375 -20.695312 13.40625 -21.71875 13.40625 C -25.675781 13.40625 -29.519531 12.800781 -33.25 11.59375 C -36.082031 10.570312 -37.78125 8.953125 -38.34375 6.734375 C -38.90625 4.523438 -38.226562 2.140625 -36.3125 -0.421875 C -33.75 -3.398438 -30.722656 -5.84375 -27.234375 -7.75 C -19.316406 -12.6875 -11.007812 -16.738281 -2.3125 -19.90625 C 20.925781 -28.707031 44.488281 -36.4375 68.375 -43.09375 C 69.675781 -43.507812 71.050781 -43.878906 72.5 -44.203125 C 75.570312 -44.804688 78.429688 -45.703125 81.078125 -46.890625 C 83.734375 -48.078125 85.738281 -50.140625 87.09375 -53.078125 C 92.113281 -64.671875 96.953125 -76.273438 101.609375 -87.890625 C 106.265625 -99.503906 110.597656 -111.320312 114.609375 -123.34375 C 114.609375 -123.425781 114.65625 -123.5625 114.75 -123.75 C 115.351562 -125.9375 116.164062 -127.988281 117.1875 -129.90625 C 117.601562 -130.550781 118.148438 -131 118.828125 -131.25 C 119.503906 -131.507812 120.191406 -131.570312 120.890625 -131.4375 C 121.398438 -131.570312 121.957031 -131.570312 122.5625 -131.4375 C 124.101562 -131.0625 124.988281 -130.035156 125.21875 -128.359375 C 125.21875 -125.191406 124.632812 -122.117188 123.46875 -119.140625 C 123.46875 -119.046875 123.425781 -118.910156 123.34375 -118.734375 C 118.3125 -103.367188 112.675781 -88.257812 106.4375 -73.40625 C 104.800781 -69.300781 103.125 -65.25 101.40625 -61.25 C 100.75 -59.800781 100.117188 -58.3125 99.515625 -56.78125 C 98.722656 -54.96875 98.394531 -53.722656 98.53125 -53.046875 C 98.675781 -52.367188 99.15625 -52.050781 99.96875 -52.09375 C 100.789062 -52.144531 101.78125 -52.378906 102.9375 -52.796875 C 103.3125 -52.890625 103.707031 -52.984375 104.125 -53.078125 C 108.644531 -54.242188 113.160156 -55.382812 117.671875 -56.5 C 125.867188 -58.550781 134.113281 -60.597656 142.40625 -62.640625 C 162.707031 -67.441406 183.144531 -71.539062 203.71875 -74.9375 C 207.394531 -75.539062 210.609375 -76.960938 213.359375 -79.203125 C 219.222656 -83.617188 225.019531 -88.816406 230.75 -94.796875 C 236.476562 -100.785156 241.210938 -107.238281 244.953125 -114.15625 C 248.703125 -121.070312 250.390625 -128.171875 250.015625 -135.453125 C 249.648438 -142.742188 246.300781 -149.972656 239.96875 -157.140625 C 235.875 -161.421875 231.21875 -165.003906 226 -167.890625 C 215.007812 -173.804688 201.804688 -178.148438 186.390625 -180.921875 C 170.984375 -183.691406 154.46875 -185.15625 136.84375 -185.3125 C 119.226562 -185.476562 101.582031 -184.582031 83.90625 -182.625 C 66.238281 -180.675781 49.695312 -177.96875 34.28125 -174.5 C 18.875 -171.03125 5.65625 -167.082031 -5.375 -162.65625 C -14.914062 -158.882812 -23.992188 -154.226562 -32.609375 -148.6875 C -36.109375 -146.539062 -39.394531 -144.1875 -42.46875 -141.625 C -45.539062 -139.070312 -48.285156 -136.140625 -50.703125 -132.828125 C -51.628906 -131.390625 -52.863281 -130.625 -54.40625 -130.53125 C -54.726562 -130.53125 -55.097656 -130.53125 -55.515625 -130.53125 C -55.609375 -130.53125 -55.703125 -130.53125 -55.796875 -130.53125 C -56.398438 -130.53125 -56.984375 -130.609375 -57.546875 -130.765625 C -58.109375 -130.929688 -58.550781 -131.269531 -58.875 -131.78125 C -59.0625 -132.207031 -59.15625 -132.640625 -59.15625 -133.078125 C -59.15625 -133.523438 -59.109375 -133.910156 -59.015625 -134.234375 C -58.222656 -136.097656 -57.148438 -137.738281 -55.796875 -139.15625 C -54.453125 -140.570312 -53.082031 -141.957031 -51.6875 -143.3125 C -47.957031 -146.476562 -44.078125 -149.335938 -40.046875 -151.890625 C -36.023438 -154.453125 -31.894531 -156.851562 -27.65625 -159.09375 C -16.8125 -164.863281 -2.941406 -170.050781 13.953125 -174.65625 C 30.859375 -179.269531 49.425781 -182.984375 69.65625 -185.796875 C 89.894531 -188.617188 110.28125 -190.15625 130.8125 -190.40625 C 151.34375 -190.664062 170.570312 -189.304688 188.5 -186.328125 C 206.425781 -183.347656 221.695312 -178.367188 234.3125 -171.390625 C 239.945312 -168.316406 245 -164.378906 249.46875 -159.578125 C 255.75 -152.503906 259.320312 -145.507812 260.1875 -138.59375 C 261.050781 -131.675781 260.097656 -124.96875 257.328125 -118.46875 C 254.554688 -111.976562 250.738281 -105.789062 245.875 -99.90625 C 241.007812 -94.019531 236.015625 -88.515625 230.890625 -83.390625 C 230.285156 -82.878906 229.679688 -82.238281 229.078125 -81.46875 C 228.472656 -80.695312 228.210938 -80.054688 228.296875 -79.546875 C 228.390625 -79.035156 229.160156 -78.875 230.609375 -79.0625 C 247.785156 -81.851562 264.929688 -83.957031 282.046875 -85.375 C 299.160156 -86.800781 316.375 -87.769531 333.6875 -88.28125 C 334.207031 -88.28125 334.675781 -88.28125 335.09375 -88.28125 L 335.234375 -88.28125 C 336.671875 -88.28125 338.113281 -88.1875 339.5625 -88 Z M 69.140625 -13.484375 C 69.515625 -14.410156 70.210938 -15.734375 71.234375 -17.453125 C 72.679688 -20.203125 74.195312 -23.238281 75.78125 -26.5625 C 77.363281 -29.894531 78.515625 -32.816406 79.234375 -35.328125 C 79.953125 -37.847656 79.59375 -39.222656 78.15625 -39.453125 C 77.269531 -39.316406 76.40625 -39.109375 75.5625 -38.828125 C 75.375 -38.828125 75.117188 -38.78125 74.796875 -38.6875 C 71.535156 -37.664062 68.253906 -36.691406 64.953125 -35.765625 C 57.078125 -33.472656 49.1875 -31.050781 41.28125 -28.5 C 40.90625 -28.40625 40.507812 -28.265625 40.09375 -28.078125 C 25.9375 -23.742188 11.988281 -18.757812 -1.75 -13.125 C -8.6875 -10.289062 -15.273438 -6.820312 -21.515625 -2.71875 C -23.890625 -1.375 -25.84375 0.414062 -27.375 2.65625 C -27.976562 3.582031 -28.148438 4.429688 -27.890625 5.203125 C -27.640625 5.972656 -27.003906 6.566406 -25.984375 6.984375 C -23.835938 7.679688 -21.648438 8.03125 -19.421875 8.03125 C -17.460938 8.03125 -15.503906 7.9375 -13.546875 7.75 C -13.453125 7.75 -13.40625 7.75 -13.40625 7.75 C -3.257812 6.726562 6.722656 5.078125 16.546875 2.796875 C 32.148438 -0.648438 47.5625 -4.675781 62.78125 -9.28125 C 63.019531 -9.425781 63.1875 -9.5 63.28125 -9.5 C 64.488281 -9.78125 65.601562 -10.195312 66.625 -10.75 C 67.644531 -11.3125 68.484375 -12.222656 69.140625 -13.484375 Z M 82.203125 -16.203125 C 91.421875 -18.578125 103.96875 -23.007812 119.84375 -29.5 C 135.71875 -36 150.976562 -42.867188 165.625 -50.109375 C 180.269531 -57.347656 190.242188 -63.320312 195.546875 -68.03125 C 194.847656 -68.03125 194.242188 -68.03125 193.734375 -68.03125 C 193.503906 -68.03125 193.34375 -68.03125 193.25 -68.03125 C 161.070312 -61.644531 129.222656 -54.050781 97.703125 -45.25 C 94.910156 -44.457031 93.003906 -42.785156 91.984375 -40.234375 C 90.066406 -36.128906 88.179688 -32.078125 86.328125 -28.078125 C 84.878906 -25.097656 83.429688 -22.070312 81.984375 -19 C 81.804688 -18.582031 81.691406 -18.113281 81.640625 -17.59375 C 81.597656 -17.082031 81.785156 -16.617188 82.203125 -16.203125 Z M 82.203125 -16.203125 "/></g></g></g><g fill="#000000" fill-opacity="1"><g transform="translate(811.381273, 206.428206)"><g><path d="M 11.109375 -16.546875 L 10.890625 -16.546875 C 4.140625 -16.640625 -0.300781 -18.140625 -2.4375 -21.046875 C -4.582031 -23.960938 -4.492188 -27.84375 -2.171875 -32.6875 C -0.210938 -36.363281 2.253906 -39.578125 5.234375 -42.328125 C 6.265625 -43.253906 7.3125 -43.992188 8.375 -44.546875 C 9.445312 -45.109375 10.660156 -45.390625 12.015625 -45.390625 C 12.804688 -45.535156 13.710938 -45.398438 14.734375 -44.984375 C 15.054688 -44.890625 15.382812 -44.769531 15.71875 -44.625 C 16.507812 -44.769531 17.273438 -45.023438 18.015625 -45.390625 C 18.203125 -45.535156 18.457031 -45.65625 18.78125 -45.75 C 20.320312 -46.351562 21.953125 -46.609375 23.671875 -46.515625 C 24.367188 -46.515625 25.09375 -46.515625 25.84375 -46.515625 C 28.59375 -46.097656 30.664062 -44.945312 32.0625 -43.0625 C 33.457031 -41.175781 33.941406 -38.878906 33.515625 -36.171875 C 33.285156 -34.546875 32.773438 -33.007812 31.984375 -31.5625 C 26.628906 -21.976562 19.8125 -16.972656 11.53125 -16.546875 Z M 22.140625 -41.546875 C 18.460938 -41.691406 15.191406 -40.632812 12.328125 -38.375 C 9.460938 -36.113281 7.332031 -33.515625 5.9375 -30.578125 C 4.539062 -27.648438 4.15625 -25.242188 4.78125 -23.359375 C 5.414062 -21.472656 7.359375 -20.953125 10.609375 -21.796875 C 14.296875 -22.910156 17.546875 -25.003906 20.359375 -28.078125 C 23.171875 -31.148438 24.890625 -34.070312 25.515625 -36.84375 C 26.148438 -39.613281 25.023438 -41.179688 22.140625 -41.546875 Z M 22.140625 -41.546875 "/></g></g></g><g fill="#000000" fill-opacity="1"><g transform="translate(848.464839, 206.428206)"><g><path d="M 10.40625 -27.9375 C 8.6875 -26.675781 7.828125 -25.789062 7.828125 -25.28125 C 7.828125 -24.769531 8.382812 -24.46875 9.5 -24.375 C 10.613281 -24.28125 11.847656 -24.234375 13.203125 -24.234375 C 13.617188 -24.328125 13.96875 -24.375 14.25 -24.375 C 18.664062 -24.28125 22.925781 -23.675781 27.03125 -22.5625 C 28.238281 -22.132812 29.425781 -21.550781 30.59375 -20.8125 C 30.6875 -20.71875 30.734375 -20.671875 30.734375 -20.671875 C 30.921875 -20.578125 31.070312 -20.378906 31.1875 -20.078125 C 31.300781 -19.773438 31.285156 -19.507812 31.140625 -19.28125 C 31.140625 -19.09375 31.007812 -18.914062 30.75 -18.75 C 30.5 -18.582031 30.28125 -18.457031 30.09375 -18.375 C 29.257812 -18.1875 28.445312 -18.140625 27.65625 -18.234375 C 19.039062 -19.253906 10.425781 -19.71875 1.8125 -19.625 C 0.1875 -19.625 -1.488281 -19.625 -3.21875 -19.625 C -3.726562 -19.625 -4.304688 -19.578125 -4.953125 -19.484375 C -6.171875 -19.347656 -7.289062 -19.382812 -8.3125 -19.59375 C -9.332031 -19.800781 -10.007812 -20.578125 -10.34375 -21.921875 C -10.519531 -22.953125 -10.25 -23.695312 -9.53125 -24.15625 C -8.8125 -24.625 -7.941406 -25 -6.921875 -25.28125 C -6.210938 -25.507812 -5.554688 -25.8125 -4.953125 -26.1875 C 2.347656 -30.28125 9.378906 -34.796875 16.140625 -39.734375 C 18.878906 -41.691406 21.273438 -43.953125 23.328125 -46.515625 C 23.929688 -47.304688 24.054688 -48.035156 23.703125 -48.703125 C 23.359375 -49.378906 22.675781 -49.765625 21.65625 -49.859375 C 18.488281 -50.191406 15.414062 -49.9375 12.4375 -49.09375 C 12.34375 -49.09375 12.296875 -49.09375 12.296875 -49.09375 C 10.148438 -48.488281 7.9375 -47.929688 5.65625 -47.421875 C 4.539062 -47.234375 3.5625 -47.582031 2.71875 -48.46875 C 2.445312 -48.976562 2.460938 -49.523438 2.765625 -50.109375 C 3.066406 -50.691406 3.679688 -51.171875 4.609375 -51.546875 C 11.265625 -54.335938 18.222656 -55.3125 25.484375 -54.46875 C 27.210938 -54.195312 28.84375 -53.6875 30.375 -52.9375 C 33.351562 -51.40625 34.078125 -49.21875 32.546875 -46.375 C 30.828125 -43.300781 28.429688 -40.671875 25.359375 -38.484375 C 21.347656 -35.546875 17.25 -32.632812 13.0625 -29.75 C 12.125 -29.144531 11.238281 -28.539062 10.40625 -27.9375 Z M 10.40625 -27.9375 "/></g></g></g><g fill="#000000" fill-opacity="1"><g transform="translate(883.313615, 206.428206)"><g><path d="M 56.703125 -32.546875 C 55.867188 -31.796875 54.988281 -31.117188 54.0625 -30.515625 C 51.082031 -28.648438 48.390625 -27.179688 45.984375 -26.109375 C 43.585938 -25.046875 40.757812 -23.957031 37.5 -22.84375 C 32.65625 -21.394531 29.546875 -21.71875 28.171875 -23.8125 C 26.804688 -25.90625 26.585938 -28.816406 27.515625 -32.546875 C 28.816406 -37.847656 29.570312 -41.734375 29.78125 -44.203125 C 29.988281 -46.671875 29.171875 -47.519531 27.328125 -46.75 C 25.492188 -45.988281 22.15625 -43.441406 17.3125 -39.109375 C 10.5625 -33.285156 4.789062 -26.628906 0 -19.140625 C -0.601562 -18.109375 -1.347656 -17.265625 -2.234375 -16.609375 C -3.117188 -15.960938 -4.210938 -15.640625 -5.515625 -15.640625 C -6.773438 -15.640625 -7.679688 -15.960938 -8.234375 -16.609375 C -8.796875 -17.265625 -8.820312 -18.15625 -8.3125 -19.28125 C -5.5625 -25.332031 -2.742188 -31.335938 0.140625 -37.296875 C 5.078125 -47.628906 9.941406 -57.914062 14.734375 -68.15625 C 18.316406 -75.84375 21.859375 -83.523438 25.359375 -91.203125 C 27.492188 -95.722656 29.585938 -100.242188 31.640625 -104.765625 C 31.828125 -105.128906 32.035156 -105.523438 32.265625 -105.953125 C 32.453125 -106.460938 32.671875 -106.972656 32.921875 -107.484375 C 33.179688 -107.992188 33.472656 -108.550781 33.796875 -109.15625 C 34.078125 -109.664062 34.601562 -110.082031 35.375 -110.40625 C 36.144531 -110.738281 36.910156 -110.953125 37.671875 -111.046875 C 38.441406 -111.140625 39.035156 -111.09375 39.453125 -110.90625 C 40.066406 -110.488281 40.40625 -110.046875 40.46875 -109.578125 C 40.539062 -109.109375 40.460938 -108.617188 40.234375 -108.109375 C 40.140625 -108.015625 40.09375 -107.851562 40.09375 -107.625 C 39.15625 -104.875 38.175781 -102.21875 37.15625 -99.65625 C 31.238281 -85.414062 24.789062 -71.378906 17.8125 -57.546875 C 17.300781 -56.617188 16.695312 -55.503906 16 -54.203125 C 14.96875 -52.335938 14.007812 -50.507812 13.125 -48.71875 C 12.238281 -46.925781 11.945312 -45.722656 12.25 -45.109375 C 12.550781 -44.503906 13.9375 -44.972656 16.40625 -46.515625 C 17.15625 -47.023438 17.832031 -47.535156 18.4375 -48.046875 C 20.394531 -49.347656 22.328125 -50.582031 24.234375 -51.75 C 25.910156 -52.863281 27.773438 -53.46875 29.828125 -53.5625 C 34.710938 -53.894531 37.457031 -51.6875 38.0625 -46.9375 C 38.289062 -45.019531 38.21875 -43.128906 37.84375 -41.265625 C 37.476562 -39.410156 37.039062 -37.578125 36.53125 -35.765625 C 36.4375 -35.242188 36.34375 -34.726562 36.25 -34.21875 C 35.40625 -31.050781 35.625 -29.234375 36.90625 -28.765625 C 38.1875 -28.304688 39.976562 -28.566406 42.28125 -29.546875 C 44.59375 -30.523438 46.9375 -31.710938 49.3125 -33.109375 C 50.9375 -33.941406 52.363281 -34.660156 53.59375 -35.265625 C 54.832031 -35.867188 55.753906 -36.125 56.359375 -36.03125 C 57.472656 -35.851562 57.984375 -35.398438 57.890625 -34.671875 C 57.796875 -33.953125 57.398438 -33.242188 56.703125 -32.546875 Z M 56.703125 -32.546875 "/></g></g></g><g fill="#000000" fill-opacity="1"><g transform="translate(936.599409, 206.428206)"><g><path d="M 50.671875 -35.578125 C 51.765625 -34.953125 51.84375 -33.429688 50.90625 -31.015625 C 49.5625 -29.242188 48.117188 -27.585938 46.578125 -26.046875 C 45.046875 -24.515625 43.367188 -23.140625 41.546875 -21.921875 C 41.410156 -21.921875 41.34375 -21.878906 41.34375 -21.796875 C 40.132812 -20.953125 38.851562 -20.226562 37.5 -19.625 C 26.375 -15.625 20.695312 -17.972656 20.46875 -26.671875 C 15.945312 -22.765625 12.921875 -20.367188 11.390625 -19.484375 C 7.703125 -17.296875 3.71875 -16.316406 -0.5625 -16.546875 C -3.726562 -16.734375 -5.878906 -17.695312 -7.015625 -19.4375 C -8.160156 -21.1875 -8.054688 -23.550781 -6.703125 -26.53125 C -4.648438 -31.238281 -1.738281 -35.429688 2.03125 -39.109375 C 6.445312 -43.203125 11.359375 -46.484375 16.765625 -48.953125 C 19.648438 -50.398438 22.675781 -50.960938 25.84375 -50.640625 C 29.007812 -50.453125 30.914062 -48.65625 31.5625 -45.25 C 31.84375 -44.226562 31.585938 -43.320312 30.796875 -42.53125 C 29.773438 -41.601562 28.585938 -41.394531 27.234375 -41.90625 C 27.140625 -41.90625 27.007812 -41.925781 26.84375 -41.96875 C 26.6875 -42.019531 26.5625 -42.09375 26.46875 -42.1875 C 25.113281 -44.050781 23.75 -44.828125 22.375 -44.515625 C 21.007812 -44.210938 19.554688 -43.597656 18.015625 -42.671875 C 10.847656 -38.484375 5.519531 -32.640625 2.03125 -25.140625 C 1.84375 -24.816406 1.722656 -24.457031 1.671875 -24.0625 C 1.628906 -23.664062 1.75 -23.347656 2.03125 -23.109375 C 2.863281 -22.835938 3.789062 -22.898438 4.8125 -23.296875 C 5.84375 -23.691406 6.867188 -24.269531 7.890625 -25.03125 C 8.910156 -25.800781 9.769531 -26.441406 10.46875 -26.953125 C 10.5625 -27.097656 10.609375 -27.171875 10.609375 -27.171875 C 14.015625 -30.003906 17.347656 -32.910156 20.609375 -35.890625 C 22.046875 -37.429688 23.835938 -38.296875 25.984375 -38.484375 C 29.054688 -38.484375 30.335938 -37.109375 29.828125 -34.359375 C 29.546875 -33.335938 29.238281 -32.3125 28.90625 -31.28125 C 27.695312 -26.863281 27.648438 -24.269531 28.765625 -23.5 C 29.890625 -22.726562 31.601562 -22.726562 33.90625 -23.5 C 36.207031 -24.269531 38.507812 -25.734375 40.8125 -27.890625 C 43.125 -30.054688 45.070312 -32.035156 46.65625 -33.828125 C 48.238281 -35.628906 49.578125 -36.210938 50.671875 -35.578125 Z M 50.671875 -35.578125 "/></g></g></g><g fill="#000000" fill-opacity="1"><g transform="translate(982.901461, 206.428206)"><g><path d="M 33.515625 -42.875 C 33.097656 -39.664062 31.585938 -37.570312 28.984375 -36.59375 C 26.378906 -35.613281 25.53125 -36.894531 26.4375 -40.4375 C 27.34375 -43.976562 25.742188 -44.875 21.640625 -43.125 C 17.546875 -41.375 14.175781 -39.175781 11.53125 -36.53125 C 7.425781 -32.332031 3.789062 -27.816406 0.625 -22.984375 C 0.300781 -22.554688 0.046875 -22.203125 -0.140625 -21.921875 C -1.066406 -20.578125 -2 -19.300781 -2.9375 -18.09375 C -3.539062 -17.25 -4.25 -16.722656 -5.0625 -16.515625 C -5.875 -16.304688 -6.703125 -16.269531 -7.546875 -16.40625 C -8.335938 -16.5 -8.941406 -16.800781 -9.359375 -17.3125 C -9.773438 -17.832031 -9.820312 -18.441406 -9.5 -19.140625 C -8.988281 -20.390625 -8.382812 -21.671875 -7.6875 -22.984375 C -3.488281 -30.753906 0.769531 -38.550781 5.09375 -46.375 C 5.1875 -46.46875 5.234375 -46.5625 5.234375 -46.65625 C 5.835938 -47.863281 6.5625 -48.976562 7.40625 -50 C 8.332031 -51.03125 9.398438 -51.453125 10.609375 -51.265625 C 11.828125 -51.078125 12.644531 -50.351562 13.0625 -49.09375 C 13.570312 -47.46875 14.015625 -46.550781 14.390625 -46.34375 C 14.765625 -46.132812 15.601562 -46.285156 16.90625 -46.796875 C 19.695312 -47.816406 22.414062 -48.535156 25.0625 -48.953125 C 27.71875 -49.378906 29.894531 -49.273438 31.59375 -48.640625 C 33.300781 -48.015625 33.941406 -46.09375 33.515625 -42.875 Z M 33.515625 -42.875 "/></g></g></g></svg>