<svg xmlns="http://www.w3.org/2000/svg" xmlns:xlink="http://www.w3.org/1999/xlink" width="1366" zoomAndPan="magnify" viewBox="0 0 1024.5 576" height="768" preserveAspectRatio="xMidYMid meet" version="1.0"><defs><g/></defs><g fill="#000000" fill-opacity="1"><g transform="translate(122.021948, 312.022195)"><g><path d="M 300.59375 -165.265625 C 300.28125 -164.441406 299.960938 -163.617188 299.640625 -162.796875 C 296.441406 -154.484375 292.992188 -146.3125 289.296875 -138.28125 C 270.210938 -98.601562 249.710938 -60.226562 227.796875 -23.15625 C 220.671875 -11.1875 213.382812 0.570312 205.9375 12.125 C 198.5 23.675781 191.015625 35.179688 183.484375 46.640625 C 181.703125 49.335938 179.898438 52.03125 178.078125 54.71875 C 177.984375 54.945312 177.890625 55.109375 177.796875 55.203125 C 177.390625 56.023438 176.910156 56.707031 176.359375 57.25 C 175.804688 57.800781 175.078125 58.078125 174.171875 58.078125 C 173.753906 58.078125 173.316406 57.972656 172.859375 57.765625 C 172.410156 57.566406 172.046875 57.304688 171.765625 56.984375 C 171.535156 56.710938 171.375 56.265625 171.28125 55.640625 C 171.195312 55.023438 171.242188 54.535156 171.421875 54.171875 C 172.660156 51.523438 174.03125 49.015625 175.53125 46.640625 C 178.914062 41.117188 182.320312 35.59375 185.75 30.0625 C 192.1875 19.789062 198.507812 9.492188 204.71875 -0.828125 C 218.5 -23.835938 231.664062 -47.328125 244.21875 -71.296875 C 256.78125 -95.265625 269.046875 -119.488281 281.015625 -143.96875 C 285.804688 -153.414062 289.753906 -163.53125 292.859375 -174.3125 C 293.492188 -176.175781 293.984375 -178.113281 294.328125 -180.125 C 294.671875 -182.132812 294.84375 -184.210938 294.84375 -186.359375 C 294.519531 -190.972656 292.554688 -192.984375 288.953125 -192.390625 C 285.753906 -191.742188 282.742188 -190.738281 279.921875 -189.375 C 273.203125 -186.132812 266.578125 -182.550781 260.046875 -178.625 C 224.984375 -157.34375 193.046875 -130.925781 164.234375 -99.375 C 163.828125 -98.875 163.367188 -98.375 162.859375 -97.875 C 152.910156 -87.050781 143.035156 -76.132812 133.234375 -65.125 C 123.441406 -54.125 113.9375 -42.800781 104.71875 -31.15625 C 102.800781 -28.738281 100.789062 -26.476562 98.6875 -24.375 C 96.457031 -22.050781 93.785156 -21.140625 90.671875 -21.640625 C 89.347656 -21.828125 88.265625 -22.476562 87.421875 -23.59375 C 86.578125 -24.707031 86.25 -26.019531 86.4375 -27.53125 C 87.070312 -31.644531 87.984375 -35.617188 89.171875 -39.453125 C 92.867188 -51.597656 96.796875 -63.582031 100.953125 -75.40625 C 101.546875 -77.226562 102.09375 -78.988281 102.59375 -80.6875 C 103.6875 -85.113281 105.238281 -89.195312 107.25 -92.9375 C 107.25 -93.03125 107.203125 -93.078125 107.109375 -93.078125 C 106.609375 -93.347656 106.109375 -93.5625 105.609375 -93.71875 C 105.109375 -93.882812 104.609375 -93.71875 104.109375 -93.21875 C 102.273438 -91.207031 100.515625 -89.101562 98.828125 -86.90625 C 84.953125 -68.09375 71.207031 -49.117188 57.59375 -29.984375 C 43.988281 -10.859375 30.703125 8.585938 17.734375 28.359375 C 16.640625 30.273438 15.414062 31.835938 14.0625 33.046875 C 12.71875 34.253906 10.929688 34.65625 8.703125 34.25 C 7.691406 33.96875 6.910156 33.347656 6.359375 32.390625 C 5.816406 31.429688 5.707031 30.5 6.03125 29.59375 C 7.21875 26.894531 8.519531 24.335938 9.9375 21.921875 C 13.945312 14.972656 17.914062 8.03125 21.84375 1.09375 C 29.75 -12.644531 37.582031 -26.457031 45.34375 -40.34375 C 57.394531 -61.613281 68.144531 -84.007812 77.59375 -107.53125 C 81.289062 -116.570312 84.304688 -126.066406 86.640625 -136.015625 C 87.921875 -141.316406 88.46875 -146.84375 88.28125 -152.59375 C 87.6875 -161.8125 84.625 -168.40625 79.09375 -172.375 C 73.570312 -176.351562 66.3125 -178.238281 57.3125 -178.03125 C 48.320312 -177.832031 38.347656 -175.992188 27.390625 -172.515625 C 16.429688 -169.046875 5.203125 -164.457031 -6.296875 -158.75 C -17.804688 -153.050781 -28.898438 -146.753906 -39.578125 -139.859375 C -50.265625 -132.960938 -59.773438 -125.972656 -68.109375 -118.890625 C -76.441406 -111.816406 -82.9375 -105.175781 -87.59375 -98.96875 C -92.476562 -92.113281 -96.632812 -84.578125 -100.0625 -76.359375 C -101.800781 -72.429688 -102.804688 -68.164062 -103.078125 -63.5625 C -103.171875 -62.644531 -103.625 -61.957031 -104.4375 -61.5 C -105.257812 -61.039062 -106.175781 -60.90625 -107.1875 -61.09375 C -108.78125 -61.59375 -109.785156 -62.847656 -110.203125 -64.859375 C -110.472656 -67.503906 -110.265625 -69.925781 -109.578125 -72.125 C -108.078125 -77.644531 -106.070312 -82.867188 -103.5625 -87.796875 C -98.945312 -96.429688 -91.9375 -105.242188 -82.53125 -114.234375 C -73.125 -123.234375 -62.164062 -131.851562 -49.65625 -140.09375 C -37.144531 -148.332031 -24.082031 -155.679688 -10.46875 -162.140625 C 3.132812 -168.609375 16.441406 -173.632812 29.453125 -177.21875 C 42.460938 -180.800781 54.179688 -182.410156 64.609375 -182.046875 C 75.046875 -181.679688 83.273438 -178.816406 89.296875 -173.453125 C 95.328125 -168.085938 98.253906 -159.628906 98.078125 -148.078125 C 97.753906 -140.628906 96.585938 -133.550781 94.578125 -126.84375 C 91.660156 -116.976562 88.296875 -107.445312 84.484375 -98.25 C 80.671875 -89.050781 76.617188 -80.046875 72.328125 -71.234375 C 71.003906 -68.492188 70.71875 -67.15625 71.46875 -67.21875 C 72.21875 -67.289062 73.347656 -68.332031 74.859375 -70.34375 C 80.296875 -77.550781 85.726562 -84.671875 91.15625 -91.703125 C 94.851562 -96.410156 98.617188 -101.023438 102.453125 -105.546875 C 102.960938 -106.179688 103.46875 -106.796875 103.96875 -107.390625 C 106.15625 -110.085938 108.800781 -111.890625 111.90625 -112.796875 C 114.238281 -113.304688 116.203125 -112.78125 117.796875 -111.21875 C 119.398438 -109.664062 119.945312 -107.335938 119.4375 -104.234375 C 119.351562 -103.921875 119.265625 -103.601562 119.171875 -103.28125 C 118.347656 -99.257812 117.390625 -95.351562 116.296875 -91.5625 C 113.367188 -82.300781 110.351562 -73.101562 107.25 -63.96875 C 105.75 -59.269531 104.242188 -54.5 102.734375 -49.65625 C 102.410156 -48.96875 101.953125 -47.710938 101.359375 -45.890625 C 100.765625 -44.285156 100.191406 -42.707031 99.640625 -41.15625 C 99.097656 -39.601562 98.664062 -38.414062 98.34375 -37.59375 C 98.757812 -37.914062 102.484375 -42.097656 109.515625 -50.140625 C 119.054688 -61.097656 130.351562 -73.925781 143.40625 -88.625 C 156.46875 -103.320312 166.722656 -114.554688 174.171875 -122.328125 C 187.910156 -136.160156 202.394531 -148.75 217.625 -160.09375 C 232.851562 -171.4375 248.640625 -181.695312 264.984375 -190.875 C 269.003906 -192.976562 273.132812 -194.875 277.375 -196.5625 C 278.289062 -196.882812 279.179688 -197.25 280.046875 -197.65625 C 284.066406 -199.257812 288.335938 -199.851562 292.859375 -199.4375 C 301.535156 -198.613281 305.507812 -193.132812 304.78125 -183 C 304.269531 -176.695312 302.875 -170.785156 300.59375 -165.265625 Z M 106.78125 -93.484375 C 107 -93.304688 107.15625 -93.171875 107.25 -93.078125 C 107.25 -93.078125 107.25 -93.03125 107.25 -92.9375 C 107.34375 -92.9375 107.390625 -92.984375 107.390625 -93.078125 C 107.203125 -93.171875 107 -93.304688 106.78125 -93.484375 Z M 106.78125 -93.484375 "/></g></g></g><g fill="#000000" fill-opacity="1"><g transform="translate(380.153493, 312.022195)"><g><path d="M 49.6875 -34.890625 C 50.757812 -34.273438 50.835938 -32.78125 49.921875 -30.40625 C 48.597656 -28.675781 47.179688 -27.054688 45.671875 -25.546875 C 44.171875 -24.035156 42.53125 -22.6875 40.75 -21.5 C 40.613281 -21.5 40.546875 -21.457031 40.546875 -21.375 C 39.359375 -20.550781 38.101562 -19.84375 36.78125 -19.25 C 25.863281 -15.320312 20.289062 -17.625 20.0625 -26.15625 C 15.632812 -22.320312 12.664062 -19.972656 11.15625 -19.109375 C 7.550781 -16.960938 3.648438 -16.003906 -0.546875 -16.234375 C -3.648438 -16.410156 -5.757812 -17.351562 -6.875 -19.0625 C -8 -20.78125 -7.898438 -23.101562 -6.578125 -26.03125 C -4.566406 -30.632812 -1.710938 -34.742188 1.984375 -38.359375 C 6.328125 -42.367188 11.144531 -45.585938 16.4375 -48.015625 C 19.269531 -49.429688 22.238281 -49.976562 25.34375 -49.65625 C 28.445312 -49.46875 30.316406 -47.707031 30.953125 -44.375 C 31.234375 -43.375 30.984375 -42.484375 30.203125 -41.703125 C 29.203125 -40.796875 28.035156 -40.59375 26.703125 -41.09375 C 26.617188 -41.09375 26.492188 -41.113281 26.328125 -41.15625 C 26.171875 -41.207031 26.046875 -41.28125 25.953125 -41.375 C 24.628906 -43.195312 23.296875 -43.957031 21.953125 -43.65625 C 20.609375 -43.363281 19.179688 -42.757812 17.671875 -41.84375 C 10.640625 -37.738281 5.410156 -32.007812 1.984375 -24.65625 C 1.804688 -24.332031 1.691406 -23.976562 1.640625 -23.59375 C 1.597656 -23.207031 1.710938 -22.898438 1.984375 -22.671875 C 2.804688 -22.398438 3.71875 -22.457031 4.71875 -22.84375 C 5.726562 -23.226562 6.734375 -23.796875 7.734375 -24.546875 C 8.742188 -25.304688 9.585938 -25.9375 10.265625 -26.4375 C 10.359375 -26.570312 10.40625 -26.640625 10.40625 -26.640625 C 13.738281 -29.421875 17.003906 -32.273438 20.203125 -35.203125 C 21.617188 -36.710938 23.378906 -37.554688 25.484375 -37.734375 C 28.492188 -37.734375 29.75 -36.390625 29.25 -33.703125 C 28.96875 -32.691406 28.671875 -31.6875 28.359375 -30.6875 C 27.171875 -26.34375 27.125 -23.796875 28.21875 -23.046875 C 29.3125 -22.296875 30.988281 -22.296875 33.25 -23.046875 C 35.507812 -23.796875 37.769531 -25.234375 40.03125 -27.359375 C 42.289062 -29.484375 44.195312 -31.421875 45.75 -33.171875 C 47.300781 -34.929688 48.613281 -35.503906 49.6875 -34.890625 Z M 49.6875 -34.890625 "/></g></g></g><g fill="#000000" fill-opacity="1"><g transform="translate(425.561079, 312.022195)"><g><path d="M 32.875 -42.046875 C 32.46875 -38.898438 30.984375 -36.847656 28.421875 -35.890625 C 25.867188 -34.929688 25.035156 -36.1875 25.921875 -39.65625 C 26.816406 -43.125 25.253906 -44 21.234375 -42.28125 C 17.210938 -40.570312 13.898438 -38.414062 11.296875 -35.8125 C 7.285156 -31.707031 3.722656 -27.28125 0.609375 -22.53125 C 0.296875 -22.125 0.046875 -21.78125 -0.140625 -21.5 C -1.046875 -20.175781 -1.957031 -18.921875 -2.875 -17.734375 C -3.46875 -16.910156 -4.160156 -16.394531 -4.953125 -16.1875 C -5.753906 -15.988281 -6.566406 -15.957031 -7.390625 -16.09375 C -8.171875 -16.1875 -8.765625 -16.484375 -9.171875 -16.984375 C -9.585938 -17.484375 -9.632812 -18.078125 -9.3125 -18.765625 C -8.8125 -19.992188 -8.21875 -21.25 -7.53125 -22.53125 C -3.425781 -30.15625 0.75 -37.804688 5 -45.484375 C 5.09375 -45.566406 5.140625 -45.65625 5.140625 -45.75 C 5.734375 -46.9375 6.441406 -48.03125 7.265625 -49.03125 C 8.171875 -50.039062 9.21875 -50.453125 10.40625 -50.265625 C 11.59375 -50.085938 12.394531 -49.378906 12.8125 -48.140625 C 13.3125 -46.546875 13.742188 -45.644531 14.109375 -45.4375 C 14.472656 -45.238281 15.296875 -45.390625 16.578125 -45.890625 C 19.316406 -46.890625 21.984375 -47.59375 24.578125 -48 C 27.179688 -48.414062 29.316406 -48.316406 30.984375 -47.703125 C 32.648438 -47.085938 33.28125 -45.203125 32.875 -42.046875 Z M 32.875 -42.046875 "/></g></g></g><g fill="#000000" fill-opacity="1"><g transform="translate(459.805115, 312.022195)"><g><path d="M 27.21875 -28.859375 C 24.78125 -25.960938 21.894531 -23.304688 18.5625 -20.890625 C 15.226562 -18.472656 11.457031 -16.835938 7.25 -15.984375 C 3.050781 -15.140625 -0.207031 -15.445312 -2.53125 -16.90625 C -4.863281 -18.375 -5.320312 -21.617188 -3.90625 -26.640625 C -2.082031 -31.847656 0.425781 -36.800781 3.625 -41.5 C 4.351562 -42.507812 5.40625 -43.21875 6.78125 -43.625 C 7.78125 -43.851562 8.65625 -43.679688 9.40625 -43.109375 C 10.164062 -42.535156 10.453125 -41.816406 10.265625 -40.953125 C 9.585938 -39.304688 8.835938 -37.660156 8.015625 -36.015625 C 7.191406 -34.378906 6.644531 -33.3125 6.375 -32.8125 C 4.769531 -29.882812 3.648438 -26.820312 3.015625 -23.625 C 3.015625 -21.800781 5.457031 -21.6875 10.34375 -23.28125 C 15.226562 -24.882812 19.972656 -27.816406 24.578125 -32.078125 C 29.191406 -36.347656 31.394531 -37.601562 31.1875 -35.84375 C 30.988281 -34.09375 29.664062 -31.765625 27.21875 -28.859375 Z M 15.265625 -51.78125 C 15.046875 -51.59375 14.582031 -51.375 13.875 -51.125 C 13.164062 -50.875 12.410156 -50.691406 11.609375 -50.578125 C 10.804688 -50.460938 10.175781 -50.585938 9.71875 -50.953125 C 9.269531 -51.316406 9.25 -52.046875 9.65625 -53.140625 C 10.382812 -55.066406 11.148438 -56.75 11.953125 -58.1875 C 12.753906 -59.625 13.789062 -61.207031 15.0625 -62.9375 C 15.882812 -63.71875 16.773438 -64.140625 17.734375 -64.203125 C 18.691406 -64.273438 19.488281 -64.023438 20.125 -63.453125 C 20.769531 -62.878906 20.957031 -62.09375 20.6875 -61.09375 C 19.675781 -57.488281 17.867188 -54.382812 15.265625 -51.78125 Z M 15.265625 -51.78125 "/></g></g></g><g fill="#000000" fill-opacity="1"><g transform="translate(486.515474, 312.022195)"><g><path d="M 27.21875 -28.859375 C 24.78125 -25.960938 21.894531 -23.304688 18.5625 -20.890625 C 15.226562 -18.472656 11.457031 -16.835938 7.25 -15.984375 C 3.050781 -15.140625 -0.207031 -15.445312 -2.53125 -16.90625 C -4.863281 -18.375 -5.320312 -21.617188 -3.90625 -26.640625 C -2.082031 -31.847656 0.425781 -36.800781 3.625 -41.5 C 4.351562 -42.507812 5.40625 -43.21875 6.78125 -43.625 C 7.78125 -43.851562 8.65625 -43.679688 9.40625 -43.109375 C 10.164062 -42.535156 10.453125 -41.816406 10.265625 -40.953125 C 9.585938 -39.304688 8.835938 -37.660156 8.015625 -36.015625 C 7.191406 -34.378906 6.644531 -33.3125 6.375 -32.8125 C 4.769531 -29.882812 3.648438 -26.820312 3.015625 -23.625 C 3.015625 -21.800781 5.457031 -21.6875 10.34375 -23.28125 C 15.226562 -24.882812 19.972656 -27.816406 24.578125 -32.078125 C 29.191406 -36.347656 31.394531 -37.601562 31.1875 -35.84375 C 30.988281 -34.09375 29.664062 -31.765625 27.21875 -28.859375 Z M 15.265625 -51.78125 C 15.046875 -51.59375 14.582031 -51.375 13.875 -51.125 C 13.164062 -50.875 12.410156 -50.691406 11.609375 -50.578125 C 10.804688 -50.460938 10.175781 -50.585938 9.71875 -50.953125 C 9.269531 -51.316406 9.25 -52.046875 9.65625 -53.140625 C 10.382812 -55.066406 11.148438 -56.75 11.953125 -58.1875 C 12.753906 -59.625 13.789062 -61.207031 15.0625 -62.9375 C 15.882812 -63.71875 16.773438 -64.140625 17.734375 -64.203125 C 18.691406 -64.273438 19.488281 -64.023438 20.125 -63.453125 C 20.769531 -62.878906 20.957031 -62.09375 20.6875 -61.09375 C 19.675781 -57.488281 17.867188 -54.382812 15.265625 -51.78125 Z M 15.265625 -51.78125 "/></g></g></g><g fill="#000000" fill-opacity="1"><g transform="translate(513.225811, 312.022195)"><g><path d="M 49.6875 -34.890625 C 50.757812 -34.273438 50.835938 -32.78125 49.921875 -30.40625 C 48.597656 -28.675781 47.179688 -27.054688 45.671875 -25.546875 C 44.171875 -24.035156 42.53125 -22.6875 40.75 -21.5 C 40.613281 -21.5 40.546875 -21.457031 40.546875 -21.375 C 39.359375 -20.550781 38.101562 -19.84375 36.78125 -19.25 C 25.863281 -15.320312 20.289062 -17.625 20.0625 -26.15625 C 15.632812 -22.320312 12.664062 -19.972656 11.15625 -19.109375 C 7.550781 -16.960938 3.648438 -16.003906 -0.546875 -16.234375 C -3.648438 -16.410156 -5.757812 -17.351562 -6.875 -19.0625 C -8 -20.78125 -7.898438 -23.101562 -6.578125 -26.03125 C -4.566406 -30.632812 -1.710938 -34.742188 1.984375 -38.359375 C 6.328125 -42.367188 11.144531 -45.585938 16.4375 -48.015625 C 19.269531 -49.429688 22.238281 -49.976562 25.34375 -49.65625 C 28.445312 -49.46875 30.316406 -47.707031 30.953125 -44.375 C 31.234375 -43.375 30.984375 -42.484375 30.203125 -41.703125 C 29.203125 -40.796875 28.035156 -40.59375 26.703125 -41.09375 C 26.617188 -41.09375 26.492188 -41.113281 26.328125 -41.15625 C 26.171875 -41.207031 26.046875 -41.28125 25.953125 -41.375 C 24.628906 -43.195312 23.296875 -43.957031 21.953125 -43.65625 C 20.609375 -43.363281 19.179688 -42.757812 17.671875 -41.84375 C 10.640625 -37.738281 5.410156 -32.007812 1.984375 -24.65625 C 1.804688 -24.332031 1.691406 -23.976562 1.640625 -23.59375 C 1.597656 -23.207031 1.710938 -22.898438 1.984375 -22.671875 C 2.804688 -22.398438 3.71875 -22.457031 4.71875 -22.84375 C 5.726562 -23.226562 6.734375 -23.796875 7.734375 -24.546875 C 8.742188 -25.304688 9.585938 -25.9375 10.265625 -26.4375 C 10.359375 -26.570312 10.40625 -26.640625 10.40625 -26.640625 C 13.738281 -29.421875 17.003906 -32.273438 20.203125 -35.203125 C 21.617188 -36.710938 23.378906 -37.554688 25.484375 -37.734375 C 28.492188 -37.734375 29.75 -36.390625 29.25 -33.703125 C 28.96875 -32.691406 28.671875 -31.6875 28.359375 -30.6875 C 27.171875 -26.34375 27.125 -23.796875 28.21875 -23.046875 C 29.3125 -22.296875 30.988281 -22.296875 33.25 -23.046875 C 35.507812 -23.796875 37.769531 -25.234375 40.03125 -27.359375 C 42.289062 -29.484375 44.195312 -31.421875 45.75 -33.171875 C 47.300781 -34.929688 48.613281 -35.503906 49.6875 -34.890625 Z M 49.6875 -34.890625 "/></g></g></g><g fill="#000000" fill-opacity="1"><g transform="translate(558.633397, 312.022195)"><g/></g></g><g fill="#000000" fill-opacity="1"><g transform="translate(610.410402, 312.022195)"><g><path d="M 333 -86.296875 C 334.09375 -86.066406 334.957031 -85.609375 335.59375 -84.921875 C 336.238281 -84.242188 336.375 -83.582031 336 -82.9375 C 335.59375 -82.34375 335.140625 -81.976562 334.640625 -81.84375 C 334.140625 -81.707031 333.59375 -81.6875 333 -81.78125 C 332.257812 -81.78125 331.503906 -81.820312 330.734375 -81.90625 C 319.867188 -82.226562 305.472656 -81.601562 287.546875 -80.03125 C 269.628906 -78.457031 255.191406 -76.914062 244.234375 -75.40625 C 235.785156 -74.3125 227.335938 -73.125 218.890625 -71.84375 C 218.703125 -71.84375 218.453125 -71.773438 218.140625 -71.640625 C 214.617188 -71.140625 211.398438 -69.835938 208.484375 -67.734375 C 197.753906 -60.429688 186.65625 -53.8125 175.1875 -47.875 C 163.726562 -41.9375 152.039062 -36.410156 140.125 -31.296875 C 120.8125 -22.753906 101.066406 -15.3125 80.890625 -8.96875 C 76.773438 -7.875 73.757812 -5.363281 71.84375 -1.4375 C 62.894531 16.414062 53.554688 33.878906 43.828125 50.953125 C 35.203125 66.160156 26.914062 81.550781 18.96875 97.125 C 18.96875 97.207031 18.921875 97.296875 18.828125 97.390625 C 18.515625 98.210938 18.109375 98.875 17.609375 99.375 C 16.785156 100.0625 15.820312 100.3125 14.71875 100.125 C 14.125 100.3125 13.53125 100.3125 12.9375 100.125 C 11.707031 99.625 11.09375 98.710938 11.09375 97.390625 C 11.226562 95.203125 11.9375 93.148438 13.21875 91.234375 C 13.3125 91.140625 13.359375 91.023438 13.359375 90.890625 C 21.390625 76.460938 29.296875 62.03125 37.078125 47.59375 C 44.867188 33.164062 52.394531 18.535156 59.65625 3.703125 C 60.25 2.460938 60.84375 1.207031 61.4375 -0.0625 C 61.664062 -0.707031 61.914062 -1.367188 62.1875 -2.046875 C 61.5 -2.234375 60.859375 -2.394531 60.265625 -2.53125 C 59.128906 -2.300781 58.015625 -1.984375 56.921875 -1.578125 C 56.503906 -1.484375 56.113281 -1.347656 55.75 -1.171875 C 41.6875 2.847656 27.460938 6.273438 13.078125 9.109375 C 3.128906 10.890625 -6.867188 12.144531 -16.921875 12.875 C -17.421875 12.96875 -17.875 13.015625 -18.28125 13.015625 C -19.289062 13.109375 -20.296875 13.15625 -21.296875 13.15625 C -25.179688 13.15625 -28.945312 12.5625 -32.59375 11.375 C -35.382812 10.363281 -37.050781 8.773438 -37.59375 6.609375 C -38.144531 4.441406 -37.484375 2.101562 -35.609375 -0.40625 C -33.097656 -3.332031 -30.128906 -5.734375 -26.703125 -7.609375 C -18.941406 -12.441406 -10.796875 -16.410156 -2.265625 -19.515625 C 20.523438 -28.148438 43.628906 -35.726562 67.046875 -42.25 C 68.328125 -42.664062 69.675781 -43.035156 71.09375 -43.359375 C 74.101562 -43.953125 76.910156 -44.828125 79.515625 -45.984375 C 82.117188 -47.148438 84.082031 -49.171875 85.40625 -52.046875 C 90.332031 -63.421875 95.078125 -74.800781 99.640625 -86.1875 C 104.210938 -97.582031 108.460938 -109.171875 112.390625 -120.953125 C 112.390625 -121.046875 112.4375 -121.179688 112.53125 -121.359375 C 113.125 -123.503906 113.921875 -125.515625 114.921875 -127.390625 C 115.335938 -128.023438 115.875 -128.46875 116.53125 -128.71875 C 117.195312 -128.976562 117.867188 -129.035156 118.546875 -128.890625 C 119.054688 -129.035156 119.609375 -129.035156 120.203125 -128.890625 C 121.703125 -128.523438 122.566406 -127.523438 122.796875 -125.890625 C 122.796875 -122.773438 122.226562 -119.757812 121.09375 -116.84375 C 121.09375 -116.75 121.046875 -116.613281 120.953125 -116.4375 C 116.023438 -101.363281 110.5 -86.546875 104.375 -71.984375 C 102.78125 -67.960938 101.140625 -63.988281 99.453125 -60.0625 C 98.804688 -58.644531 98.1875 -57.1875 97.59375 -55.6875 C 96.820312 -53.90625 96.503906 -52.679688 96.640625 -52.015625 C 96.773438 -51.359375 97.238281 -51.050781 98.03125 -51.09375 C 98.832031 -51.132812 99.804688 -51.363281 100.953125 -51.78125 C 101.316406 -51.875 101.707031 -51.960938 102.125 -52.046875 C 106.550781 -53.191406 110.976562 -54.3125 115.40625 -55.40625 C 123.4375 -57.414062 131.519531 -59.425781 139.65625 -61.4375 C 159.5625 -66.132812 179.601562 -70.148438 199.78125 -73.484375 C 203.382812 -74.078125 206.535156 -75.472656 209.234375 -77.671875 C 214.984375 -82.003906 220.664062 -87.101562 226.28125 -92.96875 C 231.90625 -98.84375 236.550781 -105.164062 240.21875 -111.9375 C 243.894531 -118.71875 245.550781 -125.679688 245.1875 -132.828125 C 244.820312 -139.972656 241.535156 -147.0625 235.328125 -154.09375 C 231.304688 -158.300781 226.738281 -161.816406 221.625 -164.640625 C 210.851562 -170.441406 197.910156 -174.703125 182.796875 -177.421875 C 167.679688 -180.140625 151.484375 -181.578125 134.203125 -181.734375 C 116.921875 -181.890625 99.613281 -181.007812 82.28125 -179.09375 C 64.957031 -177.175781 48.738281 -174.515625 33.625 -171.109375 C 18.507812 -167.710938 5.539062 -163.847656 -5.28125 -159.515625 C -14.632812 -155.816406 -23.535156 -151.25 -31.984375 -145.8125 C -35.410156 -143.707031 -38.628906 -141.398438 -41.640625 -138.890625 C -44.648438 -136.378906 -47.34375 -133.503906 -49.71875 -130.265625 C -50.632812 -128.847656 -51.847656 -128.09375 -53.359375 -128 C -53.671875 -128 -54.035156 -128 -54.453125 -128 C -54.535156 -128 -54.625 -128 -54.71875 -128 C -55.3125 -128 -55.878906 -128.078125 -56.421875 -128.234375 C -56.972656 -128.398438 -57.410156 -128.734375 -57.734375 -129.234375 C -57.921875 -129.648438 -58.015625 -130.070312 -58.015625 -130.5 C -58.015625 -130.9375 -57.96875 -131.316406 -57.875 -131.640625 C -57.09375 -133.460938 -56.039062 -135.066406 -54.71875 -136.453125 C -53.394531 -137.847656 -52.050781 -139.210938 -50.6875 -140.546875 C -47.03125 -143.648438 -43.226562 -146.457031 -39.28125 -148.96875 C -35.332031 -151.476562 -31.28125 -153.828125 -27.125 -156.015625 C -16.476562 -161.679688 -2.867188 -166.773438 13.703125 -171.296875 C 30.273438 -175.816406 48.476562 -179.457031 68.3125 -182.21875 C 88.15625 -184.976562 108.144531 -186.484375 128.28125 -186.734375 C 148.414062 -186.984375 167.269531 -185.644531 184.84375 -182.71875 C 202.425781 -179.800781 217.40625 -174.921875 229.78125 -168.078125 C 235.300781 -165.054688 240.253906 -161.195312 244.640625 -156.5 C 250.804688 -149.5625 254.3125 -142.703125 255.15625 -135.921875 C 256 -129.140625 255.0625 -122.5625 252.34375 -116.1875 C 249.625 -109.820312 245.878906 -103.75 241.109375 -97.96875 C 236.335938 -92.195312 231.441406 -86.800781 226.421875 -81.78125 C 225.828125 -81.269531 225.234375 -80.640625 224.640625 -79.890625 C 224.046875 -79.140625 223.796875 -78.507812 223.890625 -78 C 223.984375 -77.5 224.738281 -77.34375 226.15625 -77.53125 C 243 -80.269531 259.8125 -82.332031 276.59375 -83.71875 C 293.375 -85.113281 310.253906 -86.0625 327.234375 -86.5625 C 327.742188 -86.5625 328.203125 -86.5625 328.609375 -86.5625 L 328.75 -86.5625 C 330.164062 -86.5625 331.582031 -86.472656 333 -86.296875 Z M 67.796875 -13.21875 C 68.171875 -14.132812 68.859375 -15.4375 69.859375 -17.125 C 71.273438 -19.8125 72.757812 -22.785156 74.3125 -26.046875 C 75.863281 -29.316406 76.992188 -32.1875 77.703125 -34.65625 C 78.410156 -37.125 78.054688 -38.472656 76.640625 -38.703125 C 75.773438 -38.554688 74.929688 -38.347656 74.109375 -38.078125 C 73.921875 -38.078125 73.671875 -38.03125 73.359375 -37.9375 C 70.160156 -36.9375 66.9375 -35.976562 63.6875 -35.0625 C 55.976562 -32.820312 48.242188 -30.445312 40.484375 -27.9375 C 40.109375 -27.851562 39.71875 -27.71875 39.3125 -27.53125 C 25.425781 -23.28125 11.75 -18.394531 -1.71875 -12.875 C -8.519531 -10.09375 -14.976562 -6.691406 -21.09375 -2.671875 C -23.425781 -1.347656 -25.34375 0.410156 -26.84375 2.609375 C -27.4375 3.515625 -27.609375 4.34375 -27.359375 5.09375 C -27.109375 5.851562 -26.484375 6.4375 -25.484375 6.84375 C -23.378906 7.53125 -21.234375 7.875 -19.046875 7.875 C -17.117188 7.875 -15.195312 7.785156 -13.28125 7.609375 C -13.195312 7.609375 -13.15625 7.609375 -13.15625 7.609375 C -3.195312 6.597656 6.597656 4.972656 16.234375 2.734375 C 31.523438 -0.640625 46.640625 -4.585938 61.578125 -9.109375 C 61.804688 -9.242188 61.960938 -9.3125 62.046875 -9.3125 C 63.234375 -9.582031 64.328125 -9.992188 65.328125 -10.546875 C 66.335938 -11.097656 67.160156 -11.988281 67.796875 -13.21875 Z M 80.609375 -15.890625 C 89.648438 -18.210938 101.953125 -22.554688 117.515625 -28.921875 C 133.085938 -35.296875 148.054688 -42.035156 162.421875 -49.140625 C 176.785156 -56.242188 186.566406 -62.097656 191.765625 -66.703125 C 191.078125 -66.703125 190.484375 -66.703125 189.984375 -66.703125 C 189.753906 -66.703125 189.597656 -66.703125 189.515625 -66.703125 C 157.960938 -60.453125 126.726562 -53.007812 95.8125 -44.375 C 93.070312 -43.601562 91.203125 -41.960938 90.203125 -39.453125 C 88.328125 -35.429688 86.476562 -31.457031 84.65625 -27.53125 C 83.238281 -24.613281 81.820312 -21.644531 80.40625 -18.625 C 80.21875 -18.21875 80.101562 -17.757812 80.0625 -17.25 C 80.019531 -16.75 80.203125 -16.296875 80.609375 -15.890625 Z M 80.609375 -15.890625 "/></g></g></g><g fill="#000000" fill-opacity="1"><g transform="translate(802.45098, 312.022195)"><g><path d="M 10.890625 -16.234375 L 10.6875 -16.234375 C 4.0625 -16.328125 -0.296875 -17.800781 -2.390625 -20.65625 C -4.492188 -23.507812 -4.40625 -27.304688 -2.125 -32.046875 C -0.207031 -35.660156 2.210938 -38.8125 5.140625 -41.5 C 6.140625 -42.414062 7.164062 -43.144531 8.21875 -43.6875 C 9.269531 -44.238281 10.457031 -44.515625 11.78125 -44.515625 C 12.550781 -44.648438 13.441406 -44.515625 14.453125 -44.109375 C 14.773438 -44.015625 15.09375 -43.898438 15.40625 -43.765625 C 16.1875 -43.898438 16.941406 -44.148438 17.671875 -44.515625 C 17.847656 -44.648438 18.097656 -44.765625 18.421875 -44.859375 C 19.929688 -45.453125 21.53125 -45.703125 23.21875 -45.609375 C 23.90625 -45.609375 24.613281 -45.609375 25.34375 -45.609375 C 28.03125 -45.203125 30.054688 -44.070312 31.421875 -42.21875 C 32.796875 -40.375 33.28125 -38.128906 32.875 -35.484375 C 32.644531 -33.878906 32.144531 -32.367188 31.375 -30.953125 C 26.113281 -21.546875 19.421875 -16.640625 11.296875 -16.234375 Z M 21.71875 -40.75 C 18.101562 -40.882812 14.890625 -39.84375 12.078125 -37.625 C 9.273438 -35.414062 7.1875 -32.875 5.8125 -30 C 4.445312 -27.125 4.070312 -24.757812 4.6875 -22.90625 C 5.300781 -21.0625 7.207031 -20.550781 10.40625 -21.375 C 14.019531 -22.46875 17.207031 -24.519531 19.96875 -27.53125 C 22.726562 -30.539062 24.414062 -33.40625 25.03125 -36.125 C 25.644531 -38.84375 24.539062 -40.382812 21.71875 -40.75 Z M 21.71875 -40.75 "/></g></g></g><g fill="#000000" fill-opacity="1"><g transform="translate(838.818163, 312.022195)"><g><path d="M 10.203125 -27.390625 C 8.515625 -26.160156 7.671875 -25.296875 7.671875 -24.796875 C 7.671875 -24.296875 8.21875 -24 9.3125 -23.90625 C 10.40625 -23.8125 11.613281 -23.765625 12.9375 -23.765625 C 13.351562 -23.859375 13.695312 -23.90625 13.96875 -23.90625 C 18.3125 -23.8125 22.488281 -23.21875 26.5 -22.125 C 27.6875 -21.707031 28.851562 -21.132812 30 -20.40625 C 30.09375 -20.3125 30.140625 -20.265625 30.140625 -20.265625 C 30.316406 -20.179688 30.460938 -19.988281 30.578125 -19.6875 C 30.691406 -19.394531 30.679688 -19.132812 30.546875 -18.90625 C 30.546875 -18.71875 30.421875 -18.546875 30.171875 -18.390625 C 29.921875 -18.234375 29.703125 -18.109375 29.515625 -18.015625 C 28.691406 -17.828125 27.894531 -17.78125 27.125 -17.875 C 18.675781 -18.875 10.226562 -19.332031 1.78125 -19.25 C 0.1875 -19.25 -1.457031 -19.25 -3.15625 -19.25 C -3.65625 -19.25 -4.222656 -19.203125 -4.859375 -19.109375 C -6.046875 -18.972656 -7.140625 -19.003906 -8.140625 -19.203125 C -9.148438 -19.410156 -9.816406 -20.175781 -10.140625 -21.5 C -10.316406 -22.507812 -10.050781 -23.238281 -9.34375 -23.6875 C -8.632812 -24.144531 -7.78125 -24.515625 -6.78125 -24.796875 C -6.09375 -25.023438 -5.453125 -25.320312 -4.859375 -25.6875 C 2.304688 -29.695312 9.203125 -34.125 15.828125 -38.96875 C 18.515625 -40.882812 20.863281 -43.097656 22.875 -45.609375 C 23.46875 -46.390625 23.59375 -47.109375 23.25 -47.765625 C 22.90625 -48.429688 22.234375 -48.8125 21.234375 -48.90625 C 18.128906 -49.21875 15.113281 -48.960938 12.1875 -48.140625 C 12.09375 -48.140625 12.046875 -48.140625 12.046875 -48.140625 C 9.953125 -47.546875 7.785156 -47 5.546875 -46.5 C 4.453125 -46.320312 3.492188 -46.664062 2.671875 -47.53125 C 2.398438 -48.03125 2.410156 -48.566406 2.703125 -49.140625 C 3.003906 -49.710938 3.609375 -50.179688 4.515625 -50.546875 C 11.046875 -53.285156 17.875 -54.242188 25 -53.421875 C 26.6875 -53.148438 28.285156 -52.648438 29.796875 -51.921875 C 32.710938 -50.410156 33.421875 -48.265625 31.921875 -45.484375 C 30.222656 -42.460938 27.867188 -39.878906 24.859375 -37.734375 C 20.929688 -34.859375 16.914062 -32.003906 12.8125 -29.171875 C 11.894531 -28.578125 11.023438 -27.984375 10.203125 -27.390625 Z M 10.203125 -27.390625 "/></g></g></g><g fill="#000000" fill-opacity="1"><g transform="translate(872.993728, 312.022195)"><g><path d="M 55.609375 -31.921875 C 54.785156 -31.179688 53.921875 -30.519531 53.015625 -29.9375 C 50.085938 -28.101562 47.445312 -26.660156 45.09375 -25.609375 C 42.75 -24.566406 39.976562 -23.492188 36.78125 -22.390625 C 32.03125 -20.972656 28.976562 -21.289062 27.625 -23.34375 C 26.28125 -25.40625 26.066406 -28.265625 26.984375 -31.921875 C 28.265625 -37.117188 29.003906 -40.925781 29.203125 -43.34375 C 29.410156 -45.769531 28.613281 -46.601562 26.8125 -45.84375 C 25.007812 -45.09375 21.734375 -42.597656 16.984375 -38.359375 C 10.359375 -32.648438 4.695312 -26.117188 0 -18.765625 C -0.59375 -17.765625 -1.320312 -16.941406 -2.1875 -16.296875 C -3.0625 -15.660156 -4.132812 -15.34375 -5.40625 -15.34375 C -6.644531 -15.34375 -7.535156 -15.660156 -8.078125 -16.296875 C -8.628906 -16.941406 -8.65625 -17.8125 -8.15625 -18.90625 C -5.457031 -24.84375 -2.691406 -30.734375 0.140625 -36.578125 C 4.972656 -46.710938 9.742188 -56.800781 14.453125 -66.84375 C 17.960938 -74.375 21.429688 -81.910156 24.859375 -89.453125 C 26.960938 -93.878906 29.019531 -98.304688 31.03125 -102.734375 C 31.207031 -103.097656 31.410156 -103.484375 31.640625 -103.890625 C 31.828125 -104.398438 32.046875 -104.90625 32.296875 -105.40625 C 32.546875 -105.90625 32.832031 -106.453125 33.15625 -107.046875 C 33.425781 -107.546875 33.9375 -107.957031 34.6875 -108.28125 C 35.4375 -108.601562 36.1875 -108.804688 36.9375 -108.890625 C 37.695312 -108.984375 38.285156 -108.941406 38.703125 -108.765625 C 39.296875 -108.347656 39.625 -107.910156 39.6875 -107.453125 C 39.757812 -107.003906 39.679688 -106.523438 39.453125 -106.015625 C 39.359375 -105.929688 39.3125 -105.773438 39.3125 -105.546875 C 38.394531 -102.847656 37.4375 -100.242188 36.4375 -97.734375 C 30.632812 -83.765625 24.3125 -70 17.46875 -56.4375 C 16.96875 -55.519531 16.375 -54.421875 15.6875 -53.140625 C 14.675781 -51.316406 13.738281 -49.523438 12.875 -47.765625 C 12.007812 -46.015625 11.722656 -44.84375 12.015625 -44.25 C 12.316406 -43.65625 13.675781 -44.109375 16.09375 -45.609375 C 16.820312 -46.109375 17.484375 -46.613281 18.078125 -47.125 C 19.992188 -48.394531 21.890625 -49.601562 23.765625 -50.75 C 25.410156 -51.84375 27.238281 -52.4375 29.25 -52.53125 C 34.039062 -52.851562 36.734375 -50.6875 37.328125 -46.03125 C 37.554688 -44.15625 37.488281 -42.300781 37.125 -40.46875 C 36.757812 -38.644531 36.320312 -36.84375 35.8125 -35.0625 C 35.726562 -34.5625 35.640625 -34.0625 35.546875 -33.5625 C 34.722656 -30.457031 34.9375 -28.675781 36.1875 -28.21875 C 37.445312 -27.757812 39.207031 -28.007812 41.46875 -28.96875 C 43.726562 -29.925781 46.023438 -31.09375 48.359375 -32.46875 C 49.953125 -33.289062 51.351562 -34 52.5625 -34.59375 C 53.769531 -35.1875 54.671875 -35.4375 55.265625 -35.34375 C 56.367188 -35.15625 56.875 -34.707031 56.78125 -34 C 56.6875 -33.289062 56.296875 -32.597656 55.609375 -31.921875 Z M 55.609375 -31.921875 "/></g></g></g><g fill="#000000" fill-opacity="1"><g transform="translate(925.250145, 312.022195)"><g><path d="M 49.6875 -34.890625 C 50.757812 -34.273438 50.835938 -32.78125 49.921875 -30.40625 C 48.597656 -28.675781 47.179688 -27.054688 45.671875 -25.546875 C 44.171875 -24.035156 42.53125 -22.6875 40.75 -21.5 C 40.613281 -21.5 40.546875 -21.457031 40.546875 -21.375 C 39.359375 -20.550781 38.101562 -19.84375 36.78125 -19.25 C 25.863281 -15.320312 20.289062 -17.625 20.0625 -26.15625 C 15.632812 -22.320312 12.664062 -19.972656 11.15625 -19.109375 C 7.550781 -16.960938 3.648438 -16.003906 -0.546875 -16.234375 C -3.648438 -16.410156 -5.757812 -17.351562 -6.875 -19.0625 C -8 -20.78125 -7.898438 -23.101562 -6.578125 -26.03125 C -4.566406 -30.632812 -1.710938 -34.742188 1.984375 -38.359375 C 6.328125 -42.367188 11.144531 -45.585938 16.4375 -48.015625 C 19.269531 -49.429688 22.238281 -49.976562 25.34375 -49.65625 C 28.445312 -49.46875 30.316406 -47.707031 30.953125 -44.375 C 31.234375 -43.375 30.984375 -42.484375 30.203125 -41.703125 C 29.203125 -40.796875 28.035156 -40.59375 26.703125 -41.09375 C 26.617188 -41.09375 26.492188 -41.113281 26.328125 -41.15625 C 26.171875 -41.207031 26.046875 -41.28125 25.953125 -41.375 C 24.628906 -43.195312 23.296875 -43.957031 21.953125 -43.65625 C 20.609375 -43.363281 19.179688 -42.757812 17.671875 -41.84375 C 10.640625 -37.738281 5.410156 -32.007812 1.984375 -24.65625 C 1.804688 -24.332031 1.691406 -23.976562 1.640625 -23.59375 C 1.597656 -23.207031 1.710938 -22.898438 1.984375 -22.671875 C 2.804688 -22.398438 3.71875 -22.457031 4.71875 -22.84375 C 5.726562 -23.226562 6.734375 -23.796875 7.734375 -24.546875 C 8.742188 -25.304688 9.585938 -25.9375 10.265625 -26.4375 C 10.359375 -26.570312 10.40625 -26.640625 10.40625 -26.640625 C 13.738281 -29.421875 17.003906 -32.273438 20.203125 -35.203125 C 21.617188 -36.710938 23.378906 -37.554688 25.484375 -37.734375 C 28.492188 -37.734375 29.75 -36.390625 29.25 -33.703125 C 28.96875 -32.691406 28.671875 -31.6875 28.359375 -30.6875 C 27.171875 -26.34375 27.125 -23.796875 28.21875 -23.046875 C 29.3125 -22.296875 30.988281 -22.296875 33.25 -23.046875 C 35.507812 -23.796875 37.769531 -25.234375 40.03125 -27.359375 C 42.289062 -29.484375 44.195312 -31.421875 45.75 -33.171875 C 47.300781 -34.929688 48.613281 -35.503906 49.6875 -34.890625 Z M 49.6875 -34.890625 "/></g></g></g><g fill="#000000" fill-opacity="1"><g transform="translate(970.65773, 312.022195)"><g><path d="M 32.875 -42.046875 C 32.46875 -38.898438 30.984375 -36.847656 28.421875 -35.890625 C 25.867188 -34.929688 25.035156 -36.1875 25.921875 -39.65625 C 26.816406 -43.125 25.253906 -44 21.234375 -42.28125 C 17.210938 -40.570312 13.898438 -38.414062 11.296875 -35.8125 C 7.285156 -31.707031 3.722656 -27.28125 0.609375 -22.53125 C 0.296875 -22.125 0.046875 -21.78125 -0.140625 -21.5 C -1.046875 -20.175781 -1.957031 -18.921875 -2.875 -17.734375 C -3.46875 -16.910156 -4.160156 -16.394531 -4.953125 -16.1875 C -5.753906 -15.988281 -6.566406 -15.957031 -7.390625 -16.09375 C -8.171875 -16.1875 -8.765625 -16.484375 -9.171875 -16.984375 C -9.585938 -17.484375 -9.632812 -18.078125 -9.3125 -18.765625 C -8.8125 -19.992188 -8.21875 -21.25 -7.53125 -22.53125 C -3.425781 -30.15625 0.75 -37.804688 5 -45.484375 C 5.09375 -45.566406 5.140625 -45.65625 5.140625 -45.75 C 5.734375 -46.9375 6.441406 -48.03125 7.265625 -49.03125 C 8.171875 -50.039062 9.21875 -50.453125 10.40625 -50.265625 C 11.59375 -50.085938 12.394531 -49.378906 12.8125 -48.140625 C 13.3125 -46.546875 13.742188 -45.644531 14.109375 -45.4375 C 14.472656 -45.238281 15.296875 -45.390625 16.578125 -45.890625 C 19.316406 -46.890625 21.984375 -47.59375 24.578125 -48 C 27.179688 -48.414062 29.316406 -48.316406 30.984375 -47.703125 C 32.648438 -47.085938 33.28125 -45.203125 32.875 -42.046875 Z M 32.875 -42.046875 "/></g></g></g></svg>